<svg width="37" height="37" viewBox="0 0 37 37" fill="none" xmlns="http://www.w3.org/2000/svg">
<g id="icon/instagram">
<path id="vector" fill-rule="evenodd" clip-rule="evenodd" d="M18.4609 5.40234C14.7943 5.40234 14.3353 5.41764 12.8953 5.48334C11.458 5.54904 10.4761 5.77764 9.61754 6.11154C8.71754 6.44994 7.90124 6.98094 7.22624 7.66854C6.53974 8.34276 6.00841 9.15849 5.66924 10.0589C5.33714 10.9175 5.10764 11.9003 5.04194 13.3376C4.97714 14.7767 4.96094 15.2348 4.96094 18.9023C4.96094 22.5698 4.97624 23.0279 5.04194 24.4679C5.10764 25.9052 5.33624 26.8871 5.67014 27.7457C6.00854 28.6457 6.53954 29.462 7.22714 30.137C7.90138 30.8235 8.7171 31.3548 9.61754 31.694C10.4761 32.027 11.458 32.2556 12.8953 32.3213C14.3353 32.387 14.7943 32.4023 18.4609 32.4023C22.1275 32.4023 22.5865 32.387 24.0265 32.3213C25.4638 32.2556 26.4457 32.027 27.3043 31.6931C28.2043 31.3547 29.0206 30.8237 29.6956 30.1361C30.3821 29.4619 30.9135 28.6462 31.2526 27.7457C31.5856 26.8871 31.8142 25.9052 31.8799 24.4679C31.9456 23.0279 31.9609 22.5689 31.9609 18.9023C31.9609 15.2357 31.9456 14.7767 31.8799 13.3367C31.8142 11.8994 31.5856 10.9175 31.2517 10.0589C30.9128 9.1581 30.3815 8.34203 29.6947 7.66764C29.0205 6.98114 28.2048 6.44982 27.3043 6.11064C26.4457 5.77854 25.4629 5.54904 24.0256 5.48334C22.5865 5.41854 22.1284 5.40234 18.4609 5.40234ZM18.4609 7.83504C22.0654 7.83504 22.4929 7.84854 23.9167 7.91334C25.2325 7.97364 25.9471 8.19234 26.4232 8.37864C27.0532 8.62254 27.5032 8.91594 27.9757 9.38754C28.4482 9.86004 28.7407 10.31 28.9846 10.94C29.17 11.4161 29.3896 12.1307 29.4499 13.4465C29.5147 14.8703 29.5282 15.2978 29.5282 18.9023C29.5282 22.5068 29.5147 22.9343 29.4499 24.3581C29.3896 25.6739 29.1709 26.3885 28.9846 26.8646C28.7686 27.451 28.4238 27.9815 27.9757 28.4171C27.5402 28.8653 27.0097 29.2101 26.4232 29.426C25.9471 29.6114 25.2325 29.831 23.9167 29.8913C22.4929 29.9561 22.0663 29.9696 18.4609 29.9696C14.8555 29.9696 14.4289 29.9561 13.0051 29.8913C11.6893 29.831 10.9747 29.6123 10.4986 29.426C9.91225 29.21 9.38174 28.8652 8.94614 28.4171C8.4981 27.9815 8.15335 27.451 7.93724 26.8646C7.75184 26.3885 7.53224 25.6739 7.47194 24.3581C7.40714 22.9343 7.39364 22.5068 7.39364 18.9023C7.39364 15.2978 7.40714 14.8703 7.47194 13.4465C7.53224 12.1307 7.75094 11.4161 7.93724 10.94C8.18114 10.31 8.47454 9.86004 8.94614 9.38754C9.38168 8.93938 9.91221 8.59462 10.4986 8.37864C10.9747 8.19324 11.6893 7.97364 13.0051 7.91334C14.4289 7.84854 14.8564 7.83504 18.4609 7.83504Z" fill="black"/>
<path id="vector_2" fill-rule="evenodd" clip-rule="evenodd" d="M18.4605 23.407C17.8689 23.407 17.2832 23.2905 16.7367 23.0641C16.1902 22.8378 15.6936 22.506 15.2753 22.0877C14.857 21.6694 14.5252 21.1728 14.2989 20.6263C14.0725 20.0798 13.956 19.4941 13.956 18.9025C13.956 18.311 14.0725 17.7252 14.2989 17.1787C14.5252 16.6322 14.857 16.1356 15.2753 15.7174C15.6936 15.2991 16.1902 14.9673 16.7367 14.7409C17.2832 14.5145 17.8689 14.398 18.4605 14.398C19.6551 14.398 20.8009 14.8726 21.6456 15.7174C22.4904 16.5621 22.965 17.7078 22.965 18.9025C22.965 20.0972 22.4904 21.2429 21.6456 22.0877C20.8009 22.9324 19.6551 23.407 18.4605 23.407ZM18.4605 11.9635C16.6201 11.9635 14.8552 12.6946 13.5539 13.9959C12.2526 15.2972 11.5215 17.0622 11.5215 18.9025C11.5215 20.7429 12.2526 22.5078 13.5539 23.8091C14.8552 25.1104 16.6201 25.8415 18.4605 25.8415C20.3008 25.8415 22.0658 25.1104 23.3671 23.8091C24.6684 22.5078 25.3995 20.7429 25.3995 18.9025C25.3995 17.0622 24.6684 15.2972 23.3671 13.9959C22.0658 12.6946 20.3008 11.9635 18.4605 11.9635ZM27.4182 11.8375C27.4182 12.2725 27.2454 12.6897 26.9378 12.9973C26.6302 13.305 26.213 13.4778 25.7779 13.4778C25.3429 13.4778 24.9257 13.305 24.6181 12.9973C24.3105 12.6897 24.1377 12.2725 24.1377 11.8375C24.1377 11.4025 24.3105 10.9853 24.6181 10.6777C24.9257 10.3701 25.3429 10.1973 25.7779 10.1973C26.213 10.1973 26.6302 10.3701 26.9378 10.6777C27.2454 10.9853 27.4182 11.4025 27.4182 11.8375Z" fill="black"/>
</g>
</svg>
