<svg width="37" height="37" viewBox="0 0 37 37" fill="none" xmlns="http://www.w3.org/2000/svg">
<g id="icon/youtube">
<path id="vector" fill-rule="evenodd" clip-rule="evenodd" d="M30.149 9.0241C31.4391 9.3707 32.4597 10.3912 32.8063 11.6813C33.4417 14.0305 33.4609 18.9021 33.4609 18.9021C33.4609 18.9021 33.4609 23.793 32.8255 26.1229C32.4789 27.4131 31.4584 28.4336 30.1683 28.7802C27.8383 29.4156 18.4609 29.4156 18.4609 29.4156C18.4609 29.4156 9.08353 29.4156 6.75362 28.7802C5.4635 28.4336 4.44297 27.4131 4.09637 26.1229C3.46094 23.7738 3.46094 18.9021 3.46094 18.9021C3.46094 18.9021 3.46094 14.0305 4.07711 11.7006C4.42371 10.4105 5.44425 9.38996 6.73436 9.04336C9.06428 8.40792 18.4417 8.38867 18.4417 8.38867C18.4417 8.38867 27.8191 8.38867 30.149 9.0241ZM23.2363 18.9022L15.4571 23.4079V14.3964L23.2363 18.9022Z" fill="black"/>
</g>
</svg>
